<svg xmlns="http://www.w3.org/2000/svg" xmlns:xlink="http://www.w3.org/1999/xlink" viewBox="0 0 212.64 231.74"><defs><style>.cls-1{fill:url(#linear-gradient);}.cls-2{fill:#f49b31;}.cls-3{fill:#f7a64d;opacity:0.7;}.cls-4{fill:url(#linear-gradient-2);}.cls-5{fill:#ff5b4f;}.cls-6{fill:#ddd;}.cls-7{fill:#fff;}.cls-8{fill:url(#linear-gradient-3);}.cls-9{fill:#5abb7b;}.cls-10{fill:#2f8e48;}</style><linearGradient id="linear-gradient" x1="47.64" y1="133.94" x2="155.57" y2="133.94" gradientUnits="userSpaceOnUse"><stop offset="0" stop-color="#ffd473"/><stop offset="1" stop-color="#ffc449"/></linearGradient><linearGradient id="linear-gradient-2" x1="188.05" y1="221.14" x2="207.82" y2="221.14" gradientUnits="userSpaceOnUse"><stop offset="0" stop-color="#ffc963"/><stop offset="1" stop-color="#ffbb38"/></linearGradient><linearGradient id="linear-gradient-3" x1="154.01" y1="102.92" x2="153.75" y2="160.97" gradientUnits="userSpaceOnUse"><stop offset="0" stop-color="#5abb7b"/><stop offset="0.64" stop-color="#2c9b69"/><stop offset="1" stop-color="#178d61"/></linearGradient></defs><title>Mobile Customer to Business</title><g id="Layer_2" data-name="Layer 2"><g id="Layer_1-2" data-name="Layer 1"><path class="cls-1" d="M144.07,231.74h-85a11.48,11.48,0,0,1-11.48-11.48V47.62A11.48,11.48,0,0,1,59.12,36.14h85a11.49,11.49,0,0,1,11.5,11.48V220.27a11.49,11.49,0,0,1-11.5,11.48Zm0,0"/><path class="cls-2" d="M111.72,213.92a10.12,10.12,0,1,1-10.11-10.11,10.12,10.12,0,0,1,10.11,10.11Zm0,0"/><rect class="cls-3" x="47.64" y="57.71" width="107.93" height="138.77"/><rect class="cls-2" x="89.94" y="45.19" width="23.33" height="5" rx="2.5" ry="2.5"/><circle class="cls-4" cx="197.93" cy="221.14" r="9.89"/><circle class="cls-5" cx="13.18" cy="22.96" r="13.18"/><circle class="cls-6" cx="196.5" cy="16.14" r="16.14"/><line class="cls-7" x1="171.58" y1="95.55" x2="150.6" y2="95.55"/><circle class="cls-8" cx="153.9" cy="127.97" r="29.02"/><path class="cls-9" d="M153.9,152.1A24.13,24.13,0,1,1,178,128,24.16,24.16,0,0,1,153.9,152.1Zm0-45.65A21.51,21.51,0,1,0,175.41,128,21.54,21.54,0,0,0,153.9,106.46Z"/><path class="cls-10" d="M149,132.62a1.24,1.24,0,0,1-.13-.54.81.81,0,0,1,.09-.37,1,1,0,0,1,.23-.3,1.14,1.14,0,0,1,.31-.2.88.88,0,0,1,.34-.07,1.26,1.26,0,0,1,.92.59,3.32,3.32,0,0,0,1.31,1.26,4,4,0,0,0,1.93.46,3.8,3.8,0,0,0,1.08-.16,3.11,3.11,0,0,0,1-.46,2.42,2.42,0,0,0,.68-.75,2,2,0,0,0,.26-1,1.61,1.61,0,0,0-.26-.94,2.25,2.25,0,0,0-.69-.63,4.41,4.41,0,0,0-1-.42l-1.07-.32a12.3,12.3,0,0,1-1.82-.53,5.94,5.94,0,0,1-1.51-.82,3.77,3.77,0,0,1-1-1.17,3.23,3.23,0,0,1-.38-1.6,3.59,3.59,0,0,1,.4-1.69,4.14,4.14,0,0,1,1.05-1.3,4.82,4.82,0,0,1,1.49-.83,5.26,5.26,0,0,1,1.73-.29,6.21,6.21,0,0,1,1.33.14,5.43,5.43,0,0,1,1.2.41,4.59,4.59,0,0,1,1,.67,3.82,3.82,0,0,1,.78.93.8.8,0,0,1,.1.38.88.88,0,0,1-.26.64.89.89,0,0,1-.67.27,1,1,0,0,1-.6-.2,5.75,5.75,0,0,0-.63-.57,3.27,3.27,0,0,0-.64-.39,3.18,3.18,0,0,0-.73-.22,4.75,4.75,0,0,0-.86-.07,3.67,3.67,0,0,0-1,.14,2.85,2.85,0,0,0-.87.41,2.14,2.14,0,0,0-.61.66,1.73,1.73,0,0,0-.23.9,1.41,1.41,0,0,0,.29.91,2.3,2.3,0,0,0,.76.6,5.48,5.48,0,0,0,1.08.4l1.24.31a15.9,15.9,0,0,1,1.6.55,5.7,5.7,0,0,1,1.39.8,3.77,3.77,0,0,1,1,1.15,3.31,3.31,0,0,1,.37,1.62,4,4,0,0,1-.4,1.79,4.44,4.44,0,0,1-1.08,1.42,5,5,0,0,1-1.6.93,5.7,5.7,0,0,1-2,.33,6,6,0,0,1-3-.82,5.15,5.15,0,0,1-1.13-.9A4.05,4.05,0,0,1,149,132.62Zm4.13-13.71a.81.81,0,0,1,.25-.6.85.85,0,0,1,.62-.25.76.76,0,0,1,.57.25.84.84,0,0,1,.23.6v3h-1.68Zm0,15.75h1.68V137a.84.84,0,0,1-.23.6.77.77,0,0,1-.58.25.84.84,0,0,1-.61-.25.81.81,0,0,1-.25-.6Z"/><path class="cls-10" d="M154,138.22a1.18,1.18,0,0,1-.85-.34,1.15,1.15,0,0,1-.36-.85v-1.33l-.57-.13a6.27,6.27,0,0,1-1.5-.64,5.52,5.52,0,0,1-1.2-1,4.42,4.42,0,0,1-.82-1.2,1.58,1.58,0,0,1-.17-.68,1.15,1.15,0,0,1,.13-.53,1.36,1.36,0,0,1,.31-.4,1.5,1.5,0,0,1,.41-.26c.57-.24,1.14,0,1.66.62a3.08,3.08,0,0,0,1.21,1.17A3.68,3.68,0,0,0,155,133a2.79,2.79,0,0,0,.85-.41,2.06,2.06,0,0,0,.59-.64,1.66,1.66,0,0,0,.22-.85,1.28,1.28,0,0,0-.2-.75,1.91,1.91,0,0,0-.58-.53,4.07,4.07,0,0,0-.88-.39l-1.06-.32a12.45,12.45,0,0,1-1.85-.53,6.29,6.29,0,0,1-1.6-.86,4.13,4.13,0,0,1-1.12-1.28,3.58,3.58,0,0,1-.42-1.77,4,4,0,0,1,.44-1.85,4.5,4.5,0,0,1,1.14-1.4,5.2,5.2,0,0,1,1.6-.89,5.61,5.61,0,0,1,.7-.19v-1.39a1.16,1.16,0,0,1,.36-.85,1.2,1.2,0,0,1,1.68,0,1.18,1.18,0,0,1,.33.84v1.38l.18,0a5.78,5.78,0,0,1,1.28.44,5,5,0,0,1,1.1.73,4.19,4.19,0,0,1,.85,1,1.16,1.16,0,0,1,.15.56,1.22,1.22,0,0,1-.36.88,1.32,1.32,0,0,1-1.72.11,6.46,6.46,0,0,0-.64-.58,3,3,0,0,0-.57-.34,2.86,2.86,0,0,0-.65-.2A3.92,3.92,0,0,0,153,123a2.52,2.52,0,0,0-.77.36,1.81,1.81,0,0,0-.52.56,1.38,1.38,0,0,0-.19.72,1.06,1.06,0,0,0,.21.69,2,2,0,0,0,.65.51,5.14,5.14,0,0,0,1,.38l1.23.3a16.32,16.32,0,0,1,1.65.57,6.08,6.08,0,0,1,1.48.85,4.13,4.13,0,0,1,1.07,1.26,3.67,3.67,0,0,1,.41,1.79,4.41,4.41,0,0,1-.43,1.94,4.81,4.81,0,0,1-1.17,1.53,5.35,5.35,0,0,1-1.71,1,5.75,5.75,0,0,1-.84.23V137a1.18,1.18,0,0,1-.33.84A1.12,1.12,0,0,1,154,138.22Zm-.52-2.44V137a.47.47,0,0,0,.15.36.49.49,0,0,0,.7,0,.5.5,0,0,0,.14-.36v-1.25A6.57,6.57,0,0,1,153.46,135.78Zm0-.69a5.74,5.74,0,0,0,1,0V135h-1Zm-3.63-3.6a.54.54,0,0,0-.21,0,.79.79,0,0,0-.22.14.66.66,0,0,0-.15.2.46.46,0,0,0-.05.22.91.91,0,0,0,.1.39h0a3.73,3.73,0,0,0,.69,1,4.83,4.83,0,0,0,1.05.84,5.59,5.59,0,0,0,1.34.57l.38.09v-.67h2.37V135a5.05,5.05,0,0,0,.6-.18,4.65,4.65,0,0,0,1.49-.86,4.12,4.12,0,0,0,1-1.31,3.72,3.72,0,0,0,.36-1.64,3,3,0,0,0-.33-1.45,3.45,3.45,0,0,0-.89-1,5.39,5.39,0,0,0-1.31-.75,15.68,15.68,0,0,0-1.57-.54l-1.24-.31a5.84,5.84,0,0,1-1.14-.43,2.65,2.65,0,0,1-.87-.7,1.75,1.75,0,0,1-.37-1.13,2.08,2.08,0,0,1,.28-1.08,2.5,2.5,0,0,1,.71-.77,3.21,3.21,0,0,1,1-.46l.33-.08h-.42V121l-.47.14a4.49,4.49,0,0,0-1.39.77,3.81,3.81,0,0,0-1,1.19,3.26,3.26,0,0,0-.36,1.53,2.9,2.9,0,0,0,.34,1.43,3.44,3.44,0,0,0,.94,1.07,5.61,5.61,0,0,0,1.42.77,12,12,0,0,0,1.77.51l1.1.33a4.77,4.77,0,0,1,1,.46,2.6,2.6,0,0,1,.79.73,2,2,0,0,1,.33,1.14,2.34,2.34,0,0,1-.31,1.2,2.78,2.78,0,0,1-.78.85,3.48,3.48,0,0,1-1.05.51,4.17,4.17,0,0,1-1.18.17,4.33,4.33,0,0,1-2.09-.5,3.68,3.68,0,0,1-1.45-1.39A.94.94,0,0,0,149.83,131.49Zm5-9.24h0a3.56,3.56,0,0,1,.81.25,3.63,3.63,0,0,1,.71.43,6.1,6.1,0,0,1,.67.61.69.69,0,0,0,.36.1.55.55,0,0,0,.42-.16.54.54,0,0,0,.16-.39.46.46,0,0,0-.06-.22,3.48,3.48,0,0,0-.7-.83,4.27,4.27,0,0,0-.95-.62,5.11,5.11,0,0,0-1.13-.38h0v1.25Zm-1.39-.69h1v-.66a5.68,5.68,0,0,0-1,0Zm.46-1.37.53,0v-1.29a.5.5,0,0,0-.14-.36.49.49,0,0,0-.7,0,.47.47,0,0,0-.15.36v1.29Z"/><path class="cls-9" d="M206.64,124.9,192.5,110.75a4.21,4.21,0,1,0-6,6l6.76,6.76c3.62,2.88,3.29,5.66.39,8.42l-7.34,7.34a4.21,4.21,0,1,0,6,6l14.34-14.34A4.21,4.21,0,0,0,206.64,124.9Z"/></g></g></svg>